<svg xmlns="http://www.w3.org/2000/svg" width="100" height="100" viewBox="0 0 100 100">
  <g id="Gruppe_8" data-name="Gruppe 8" transform="translate(-1265 384)">
    <rect id="Rechteck_18" data-name="Rechteck 18" width="100" height="100" transform="translate(1265 -384)" fill="#ffc107"/>
    <g id="warning-sign" transform="translate(1283.002 -367)">
      <path id="Pfad_6" data-name="Pfad 6" d="M60.329,50.047,36.611,6.752a5.239,5.239,0,0,0-9.222,0L3.671,50.047a5.362,5.362,0,0,0,.09,5.358A5.216,5.216,0,0,0,8.282,58H55.718a5.216,5.216,0,0,0,4.521-2.6,5.362,5.362,0,0,0,.09-5.358ZM34.857,21,33.428,41.714H30.571L29.143,21ZM32,52a3,3,0,1,1,3-3A3,3,0,0,1,32,52Z" fill="#fff"/>
    </g>
  </g>
</svg>